<svg height="512" viewBox="0 0 128 128" width="512" xmlns="http://www.w3.org/2000/svg"><path d="m70.634 123.311h-12.577a1.75 1.75 0 0 1 -1.75-1.75v-7.726a58.107 58.107 0 0 1 -31.636-15.035 1.75 1.75 0 0 1 -.175-2.388l9.95-12.3a1.749 1.749 0 0 1 2.542-.19 45.833 45.833 0 0 0 19.319 10.958v-23.38c-17.144-4.64-28.469-11.357-28.469-28.161 0-15.42 11.374-27.313 28.469-29.992v-6.908a1.75 1.75 0 0 1 1.75-1.75h12.577a1.75 1.75 0 0 1 1.75 1.75v7.017a53.334 53.334 0 0 1 28.416 13.079 1.75 1.75 0 0 1 .265 2.365l-9.4 12.715a1.749 1.749 0 0 1 -2.551.284 44.528 44.528 0 0 0 -16.73-9.441v22.342c16.542 3.891 31.509 10.292 31.509 29.032 0 17.014-12.025 28.586-31.509 30.494v7.235a1.75 1.75 0 0 1 -1.75 1.75zm-10.827-3.5h9.077v-7.1a1.75 1.75 0 0 1 1.63-1.746c18.43-1.271 29.879-11.669 29.879-27.138 0-15.861-12.051-21.839-30.145-25.933a1.751 1.751 0 0 1 -1.364-1.707v-25.976a1.749 1.749 0 0 1 2.126-1.711 45.8 45.8 0 0 1 18.945 9.54l7.315-9.9a49.536 49.536 0 0 0 -26.821-11.391 1.75 1.75 0 0 1 -1.565-1.74v-6.82h-9.077v6.681a1.75 1.75 0 0 1 -1.538 1.737c-16.108 1.965-26.931 12.707-26.931 26.732 0 15.031 10.392 20.755 27.159 25.118a1.749 1.749 0 0 1 1.31 1.693v26.95a1.75 1.75 0 0 1 -2.115 1.712 48.7 48.7 0 0 1 -21.676-11.074l-7.752 9.582a54.737 54.737 0 0 0 30 13.243 1.749 1.749 0 0 1 1.542 1.737zm10.827-20.133a1.75 1.75 0 0 1 -1.75-1.75v-24.6a1.749 1.749 0 0 1 2.246-1.678c9.81 2.9 15.488 6.1 15.488 13.839 0 7.483-6.194 13.048-15.779 14.177a1.8 1.8 0 0 1 -.205.012zm1.75-23.978v20.182c6.673-1.332 10.734-5.2 10.734-10.393 0-4.624-2.667-7.149-10.734-9.789zm-14.327-21.075a1.731 1.731 0 0 1 -.581-.1c-6.349-2.233-12.225-5.319-12.225-12.706 0-6.312 4.979-11.771 12.39-13.586a1.75 1.75 0 0 1 2.166 1.7v22.942a1.751 1.751 0 0 1 -1.75 1.75zm-1.75-22.306c-4.6 1.812-7.556 5.438-7.556 9.5 0 3.873 2.027 6.246 7.556 8.521z"/></svg>